<svg width="380" height="195" viewBox="0 0 380 195" fill="none" xmlns="http://www.w3.org/2000/svg">
<path d="M190.956 7.91159C92.947 7.91159 13.4937 88.3742 13.4937 187.629H368.419C368.419 88.3742 288.966 7.91159 190.956 7.91159Z" fill="white"/>
<path d="M15.7549 185.381H366.158C364.962 88.5588 286.827 10.1588 190.956 10.1588C95.0856 10.1588 16.9509 88.5588 15.7549 185.381ZM370.667 189.877H11.2456V187.629C11.2456 87.2934 91.8643 5.66412 190.956 5.66412C290.048 5.66412 370.667 87.2934 370.667 187.629V189.877Z" fill="#19357F"/>
<path d="M84.8369 169.74L88.5089 169.18C88.6649 169.892 88.9822 170.432 89.4596 170.801C89.9369 171.171 90.6062 171.355 91.4649 171.355C92.4116 171.355 93.1236 171.18 93.6009 170.833C93.9222 170.592 94.0822 170.265 94.0822 169.857C94.0822 169.579 93.9956 169.349 93.8222 169.167C93.6396 168.993 93.2316 168.833 92.5982 168.685C89.6462 168.035 87.7756 167.44 86.9862 166.901C85.8916 166.153 85.3449 165.117 85.3449 163.789C85.3449 162.591 85.8182 161.583 86.7636 160.768C87.7102 159.952 89.1769 159.544 91.1662 159.544C93.0582 159.544 94.4649 159.851 95.3849 160.468C96.3049 161.085 96.9382 161.996 97.2862 163.203L93.8356 163.841C93.6876 163.303 93.4076 162.891 92.9956 162.604C92.5822 162.317 91.9942 162.175 91.2302 162.175C90.2676 162.175 89.5769 162.309 89.1609 162.577C88.8822 162.768 88.7436 163.016 88.7436 163.32C88.7436 163.58 88.8649 163.801 89.1089 163.984C89.4382 164.227 90.5769 164.571 92.5262 165.013C94.4756 165.456 95.8356 165.997 96.6089 166.641C97.3729 167.292 97.7556 168.199 97.7556 169.363C97.7556 170.631 97.2249 171.72 96.1662 172.631C95.1062 173.543 93.5396 173.999 91.4649 173.999C89.5809 173.999 88.0902 173.616 86.9916 172.852C85.8929 172.089 85.1756 171.051 84.8369 169.74Z" fill="#19357F"/>
<path d="M112.91 165.586C112.883 164.526 112.61 163.722 112.09 163.17C111.569 162.618 110.934 162.343 110.189 162.343C109.389 162.343 108.73 162.635 108.209 163.215C107.689 163.796 107.431 164.588 107.441 165.586H112.91ZM112.702 169.284L116.347 169.896C115.879 171.232 115.138 172.251 114.127 172.95C113.115 173.648 111.85 173.998 110.331 173.998C107.926 173.998 106.146 173.212 104.993 171.642C104.081 170.383 103.625 168.794 103.625 166.875C103.625 164.583 104.225 162.787 105.422 161.49C106.621 160.192 108.135 159.543 109.967 159.543C112.025 159.543 113.647 160.222 114.837 161.582C116.026 162.94 116.595 165.02 116.543 167.826H107.375C107.402 168.911 107.697 169.755 108.261 170.359C108.825 170.962 109.529 171.263 110.37 171.263C110.943 171.263 111.426 171.107 111.817 170.795C112.207 170.482 112.502 169.979 112.702 169.284" fill="#19357F"/>
<path d="M126.762 173.686H123.103V159.856H126.502V161.822C127.083 160.892 127.606 160.28 128.071 159.986C128.534 159.691 129.062 159.543 129.652 159.543C130.486 159.543 131.288 159.772 132.062 160.234L130.928 163.424C130.312 163.026 129.739 162.826 129.21 162.826C128.698 162.826 128.263 162.967 127.907 163.248C127.551 163.53 127.271 164.04 127.068 164.779C126.863 165.516 126.762 167.062 126.762 169.414V173.686Z" fill="#19357F"/>
<path d="M141.174 173.686L135.601 159.856H139.442L142.046 166.914L142.802 169.271C143.001 168.672 143.127 168.276 143.179 168.086C143.301 167.695 143.431 167.304 143.57 166.914L146.201 159.856H149.965L144.469 173.686H141.174Z" fill="#19357F"/>
<path d="M155.937 159.856H159.596V173.685H155.937V159.856ZM155.937 154.595H159.596V157.98H155.937V154.595Z" fill="#19357F"/>
<path d="M179.14 163.945L175.533 164.596C175.411 163.876 175.136 163.333 174.705 162.969C174.276 162.604 173.717 162.421 173.032 162.421C172.121 162.421 171.393 162.736 170.851 163.365C170.308 163.996 170.037 165.048 170.037 166.524C170.037 168.164 170.312 169.324 170.864 170.001C171.415 170.677 172.155 171.016 173.084 171.016C173.779 171.016 174.348 170.82 174.791 170.424C175.233 170.028 175.545 169.349 175.728 168.385L179.323 168.998C178.949 170.646 178.232 171.893 177.173 172.736C176.113 173.577 174.695 173.998 172.915 173.998C170.892 173.998 169.28 173.36 168.077 172.084C166.875 170.808 166.273 169.041 166.273 166.784C166.273 164.5 166.877 162.722 168.084 161.452C169.291 160.18 170.923 159.544 172.98 159.544C174.664 159.544 176.003 159.906 176.997 160.63C177.992 161.356 178.705 162.461 179.14 163.945Z" fill="#19357F"/>
<path d="M193.865 165.586C193.838 164.526 193.565 163.722 193.045 163.17C192.524 162.618 191.89 162.343 191.144 162.343C190.344 162.343 189.685 162.635 189.164 163.215C188.644 163.796 188.388 164.588 188.396 165.586H193.865ZM193.657 169.284L197.302 169.896C196.834 171.232 196.093 172.251 195.082 172.95C194.072 173.648 192.805 173.998 191.286 173.998C188.882 173.998 187.101 173.212 185.948 171.642C185.036 170.383 184.58 168.794 184.58 166.875C184.58 164.583 185.18 162.787 186.377 161.49C187.576 160.192 189.09 159.543 190.922 159.543C192.98 159.543 194.602 160.222 195.792 161.582C196.982 162.94 197.55 165.02 197.498 167.826H188.33C188.357 168.911 188.652 169.755 189.216 170.359C189.781 170.962 190.484 171.263 191.325 171.263C191.898 171.263 192.381 171.107 192.772 170.795C193.162 170.482 193.457 169.979 193.657 169.284" fill="#19357F"/>
<path d="M229.781 163.237C230.156 163.262 230.608 163.262 231.221 163.262C233.437 163.262 234.504 161.759 234.557 159.978C234.504 158.247 233.409 157.89 232.128 157.89C231.756 157.89 231.196 157.914 230.583 157.941L229.781 163.237ZM237.281 172.802C237.389 173.057 237.043 173.363 236.721 173.363H233.36C233.147 173.363 233.04 173.387 232.96 173.211C232.96 173.211 232.883 167.05 231.277 165.862C231.093 165.726 230.351 165.795 230.351 165.795H229.124L228.221 172.879C228.169 173.261 227.955 173.363 227.689 173.363H224.593C224.327 173.363 224.3 173.338 224.327 173.083L226.915 155.513C226.968 155.258 227.235 155.055 227.475 155.03C228.303 154.954 229.343 154.902 230.303 154.851L230.624 154.826H230.756C231.584 154.801 232.332 154.775 232.812 154.775C236.813 154.775 238.575 156.378 238.575 159.179C238.548 161.931 237.664 163.413 234.888 164.635C234.888 164.635 234.995 164.957 235.057 165.051C236.277 166.922 237.281 172.802 237.281 172.802" fill="#19357F"/>
<path d="M262.23 155.513L260.548 166.82C259.908 171.198 257.267 173.618 252.624 173.618C247.768 173.618 245.768 170.996 246.407 166.614L248.035 155.309C248.115 155.054 248.115 155.03 248.382 155.03H251.504C251.771 155.03 251.958 155.258 251.931 155.513L250.251 166.82C249.904 169.212 250.784 170.41 252.731 170.41C254.894 170.41 256.334 169.034 256.68 166.614L258.335 155.309C258.388 155.054 258.414 155.03 258.682 155.03H261.775C262.043 155.03 262.256 155.258 262.23 155.513Z" fill="#19357F"/>
<path d="M281.16 156.405C281.454 156.633 281.482 156.837 281.322 157.015L279.746 158.875C279.64 159.027 279.294 159.027 278.972 158.849C277.907 158.186 277.506 158.059 276.679 158.059C275.478 158.059 274.251 159.23 274.276 160.301C274.251 161.242 275.344 161.803 276.438 162.286C278.679 163.433 280.547 164.043 280.547 167.023C280.467 170.053 278.652 173.618 273.503 173.618C271.128 173.618 269.715 172.829 268.142 171.53C267.954 171.326 267.9 171.071 268.06 170.867L269.395 169.162C269.582 168.933 269.9 168.933 270.114 169.111C271.503 170.053 272.17 170.41 273.53 170.41C275.478 170.41 276.438 168.781 276.464 167.533C276.464 166.259 275.424 165.825 274.463 165.394C272.25 164.195 270.168 163.661 270.222 160.911C270.168 158.493 271.662 154.775 276.598 154.775C278.172 154.775 279.96 155.258 281.16 156.405Z" fill="#19357F"/>
<path d="M301.135 156.405C301.428 156.633 301.455 156.837 301.296 157.015L299.72 158.875C299.615 159.027 299.268 159.027 298.947 158.849C297.882 158.186 297.48 158.059 296.654 158.059C295.452 158.059 294.226 159.23 294.251 160.301C294.226 161.242 295.319 161.803 296.412 162.286C298.654 163.433 300.522 164.043 300.522 167.023C300.442 170.053 298.627 173.618 293.478 173.618C291.103 173.618 289.69 172.829 288.116 171.53C287.928 171.326 287.875 171.071 288.035 170.867L289.37 169.162C289.556 168.933 289.875 168.933 290.088 169.111C291.478 170.053 292.144 170.41 293.504 170.41C295.452 170.41 296.412 168.781 296.439 167.533C296.439 166.259 295.399 165.825 294.438 165.394C292.224 164.195 290.143 163.661 290.196 160.911C290.143 158.493 291.636 154.775 296.572 154.775C298.147 154.775 299.935 155.258 301.135 156.405Z" fill="#19357F"/>
<path d="M314.441 155.03C314.707 155.03 314.921 155.258 314.895 155.513L311.638 172.905C311.585 173.235 311.371 173.363 311.105 173.363H308.009C307.743 173.363 307.635 173.287 307.662 173.033L310.999 155.31C311.026 155.055 311.079 155.03 311.346 155.03H314.441Z" fill="#19357F"/>
<path d="M331.08 165.218L330.523 159.486L327.381 165.218H331.08ZM335.612 173.363H332.409C332.169 173.363 332.036 173.159 331.956 172.957L331.288 168.083H326.392L324.013 173.057C323.932 173.235 323.693 173.363 323.452 173.363H320.252C319.957 173.363 319.717 173.083 319.852 172.829L328.921 155.234C329.029 155.03 329.136 155.03 329.376 155.03H332.711C332.951 155.03 333.084 155.258 333.112 155.437L335.905 172.802C336.012 173.185 335.905 173.363 335.612 173.363Z" fill="#19357F"/>
<path d="M344.572 172.771H340.717V168.812H344.572V172.771Z" fill="#19357F"/>
<path d="M82.9871 132.921C82.9871 133.807 82.4765 134.635 81.4538 135.407C80.4298 136.181 79.2791 136.567 78.0031 136.567H73.8765C73.8765 136.567 73.7871 133.915 73.7871 132.921V55.8827V52.072H78.0031C79.4085 52.072 80.5911 52.4307 81.5498 53.1494C82.5085 53.868 82.9871 54.78 82.9871 55.8827V132.921ZM98.8645 135.504V54.6534C98.8645 47.3627 98.8698 43.936 95.8685 41.196C93.3565 38.9014 89.6005 38.8667 86.3258 38.8667C85.5338 38.8667 56.8418 39.244 56.8418 39.244V183.919L73.7858 170.896V148.705C77.8525 148.687 84.3445 148.809 86.7165 148.809C91.3471 148.809 97.0525 147.281 98.6951 140.805C98.9138 139.943 98.8645 139.04 98.8645 138.153V135.504Z" fill="#19357F"/>
<path d="M209.76 50.4556V38.9649H197.666V12.4742L181.098 24.9409V38.9649H172.152V50.4556H181.098V132.161C181.098 137.377 182.147 141.073 184.246 143.253C186.343 145.436 188.663 146.844 191.204 147.482C192.639 147.906 194.022 148.145 195.346 148.2C196.672 148.253 197.832 148.28 198.826 148.28C198.935 148.28 198.991 148.333 198.991 148.44H209.76V136.47H203.796C203.464 136.47 203.106 136.446 202.719 136.392C202.331 136.338 201.974 136.258 201.643 136.152C200.648 135.832 199.738 135.169 198.908 134.157C198.08 133.148 197.666 131.578 197.666 129.449V50.4556H209.76Z" fill="#19357F"/>
<path d="M159.11 47.4615C158.556 45.3789 157.288 43.4255 155.3 41.6015C153.312 39.7789 149.833 38.8669 144.862 38.8669H133.761H131.69C130.97 38.8669 130.225 38.9202 129.454 39.0215C126.692 39.3349 124.178 40.4042 121.916 42.2255C119.65 44.0509 118.52 47.8789 118.52 53.7135V72.7802V73.3282V73.7189C118.52 75.2815 118.545 76.6629 118.602 77.8602C118.657 79.0602 118.905 80.2309 119.348 81.3762C119.68 82.2122 120.202 83.0962 120.921 84.0335C121.638 84.9722 122.55 86.0149 123.656 87.1602L138.566 101.851C139.118 102.374 139.586 102.867 139.974 103.335C140.361 103.804 140.72 104.25 141.052 104.664C141.714 105.707 142.212 106.775 142.542 107.868C142.874 108.962 143.04 110.344 143.04 112.01V133.108V133.5V136.855L141.578 136.907C141.578 136.907 140.112 137.016 138.898 137.016C137.792 137.016 136.881 136.652 136.164 135.922C135.445 135.194 135.088 134.258 135.088 133.108V110.784L118.52 122.714V132.327V132.719V133.108C118.52 133.944 118.545 134.932 118.602 136.079C118.657 137.227 118.794 138.371 119.016 139.516C119.68 141.704 121.005 143.686 122.993 145.456C124.98 147.227 128.402 148.164 133.264 148.27L144.696 148.112C149.998 148.112 153.642 147.019 155.63 144.831C157.62 142.643 158.833 140.195 159.276 137.484C159.385 136.547 159.468 135.664 159.525 134.828C159.58 133.996 159.608 133.163 159.608 132.327V110.759C159.608 108.259 159.55 106.227 159.441 104.664C159.33 103.102 158.888 101.592 158.117 100.131C157.562 99.0909 156.817 97.9695 155.88 96.7722C154.94 95.5749 153.697 94.2469 152.152 92.7855L140.72 81.6895C139.282 80.2309 137.986 78.6962 136.826 77.0789C135.666 75.4655 135.088 73.5629 135.088 71.3735V53.8695C135.088 52.7242 135.473 51.8375 136.248 51.2135C137.018 50.5882 137.846 50.2242 138.732 50.1189H138.98H139.229C140.224 50.1189 141.106 50.4575 141.88 51.1349C142.65 51.8135 143.04 52.7242 143.04 53.8695V74.0095L159.608 60.2575V53.5575V53.2442C159.608 52.4122 159.58 51.5015 159.525 50.5095C159.468 49.5202 159.33 48.5055 159.11 47.4615Z" fill="#19357F"/>
<path d="M244.716 149.157L247.216 138.461L319.308 74.2878L256.801 146.24L244.716 149.157Z" fill="#EC6E00"/>
<path d="M254.023 61.7853H251.761V51.7146H254.023V61.7853Z" fill="#19357F"/>
<path d="M239.57 62.7514L237.326 63.0327L236.07 53.0407L238.314 52.7594L239.57 62.7514Z" fill="#19357F"/>
<path d="M225.842 66.2395L223.688 66.9261L220.629 57.3315L222.784 56.6448L225.842 66.2395Z" fill="#19357F"/>
<path d="M212.804 71.6108L210.805 72.6681L206.094 63.7668L208.093 62.7094L212.804 71.6108Z" fill="#19357F"/>
<path d="M305.788 82.0752L304.06 80.6165L310.553 72.9192L312.281 74.3779L305.788 82.0752Z" fill="#19357F"/>
<path d="M294.14 73.8057L292.217 72.615L297.52 64.0537L299.443 65.2443L294.14 73.8057Z" fill="#19357F"/>
<path d="M323.541 104.089L322.373 102.153L330.997 96.952L332.165 98.8894L323.541 104.089Z" fill="#19357F"/>
<path d="M315.591 92.4536L314.113 90.7416L321.735 84.1603L323.213 85.8723L315.591 92.4536Z" fill="#19357F"/>
<path d="M329.487 117.063L328.701 114.943L338.141 111.438L338.929 113.558L329.487 117.063Z" fill="#19357F"/>
<path d="M333.849 144.743L333.823 142.482L343.893 142.368L343.919 144.63L333.849 144.743Z" fill="#19357F"/>
<path d="M332.502 130.482L332.202 128.241L342.182 126.902L342.483 129.144L332.502 130.482Z" fill="#19357F"/>
<path d="M281.854 67.2319L279.723 66.4746L283.098 56.9853L285.228 57.7439L281.854 67.2319Z" fill="#19357F"/>
<path d="M268.42 63.4822L266.184 63.1448L267.684 53.1875L269.921 53.5235L268.42 63.4822Z" fill="#19357F"/>
</svg>
