<svg width="21" height="25" viewBox="0 0 21 25" fill="none" xmlns="http://www.w3.org/2000/svg">
<path d="M6.94819 6.1065L3.33453 7.91333C2.16233 8.49943 1.42188 9.69751 1.42188 11.0081C1.42188 13.5802 4.12869 15.2531 6.42926 14.1028L14.0987 10.2681C16.3993 9.1178 19.1061 10.7907 19.1061 13.3628C19.1061 14.6734 18.3656 15.8715 17.1934 16.4576L13.5798 18.2644M13.5798 4.4486C13.5798 6.27986 12.0952 7.76439 10.264 7.76439C8.43272 7.76439 6.94819 6.27986 6.94819 4.4486C6.94819 2.61734 8.43272 1.13281 10.264 1.13281C12.0952 1.13281 13.5798 2.61734 13.5798 4.4486ZM13.5798 19.9223C13.5798 21.7535 12.0952 23.2381 10.264 23.2381C8.43272 23.2381 6.94819 21.7535 6.94819 19.9223C6.94819 18.091 8.43272 16.6065 10.264 16.6065C12.0952 16.6065 13.5798 18.091 13.5798 19.9223Z" stroke="#27577C" stroke-width="2.21053" stroke-linecap="round"/>
</svg>
