<svg width="20" height="21" viewBox="0 0 20 21" fill="none" xmlns="http://www.w3.org/2000/svg">
<path d="M13.0729 0.898438H6.9375C1.33331 0.898438 0 2.23175 0 7.8255V13.9609C0 19.5651 1.32294 20.8984 6.92706 20.8984H13.0625C18.6667 20.8984 20 19.5755 20 13.9713V7.83594C20 2.23175 18.6771 0.898438 13.0729 0.898438ZM16.1458 15.1692H14.6875C14.1354 15.1692 13.9687 14.7213 12.9792 13.7317C12.1146 12.8984 11.75 12.7942 11.5312 12.7942C11.2292 12.7942 11.1458 12.8776 11.1458 13.2942V14.6067C11.1458 14.9609 11.0312 15.1692 10.1042 15.1692C9.20458 15.1088 8.33219 14.8355 7.55888 14.3719C6.78557 13.9083 6.13346 13.2676 5.65625 12.5026C4.52336 11.0925 3.73511 9.4375 3.35419 7.66925C3.35419 7.4505 3.4375 7.25257 3.85419 7.25257H5.3125C5.6875 7.25257 5.82294 7.41925 5.96875 7.80469C6.67706 9.888 7.88544 11.7005 8.375 11.7005C8.5625 11.7005 8.64581 11.6172 8.64581 11.1484V9.00257C8.58331 8.02344 8.0625 7.94007 8.0625 7.58594C8.06936 7.49251 8.11236 7.40543 8.18237 7.34318C8.25239 7.28094 8.34391 7.24843 8.4375 7.25257H10.7292C11.0417 7.25257 11.1458 7.40882 11.1458 7.78382V10.6797C11.1458 10.9922 11.2812 11.0963 11.375 11.0963C11.5625 11.0963 11.7083 10.9922 12.0521 10.6484C12.7907 9.74762 13.3943 8.74402 13.8438 7.66925C13.8896 7.53992 13.9766 7.42918 14.0913 7.35393C14.2061 7.27869 14.3423 7.24309 14.4792 7.25257H15.9375C16.375 7.25257 16.4688 7.47132 16.375 7.78382C15.8444 8.97213 15.1878 10.1001 14.4167 11.1484C14.2604 11.388 14.1979 11.513 14.4167 11.7942C14.5625 12.013 15.0729 12.4401 15.4167 12.8463C15.9167 13.3451 16.3318 13.9221 16.6458 14.5547C16.7708 14.9609 16.5625 15.1692 16.1458 15.1692V15.1692Z" fill="white"/>
</svg>
