<svg width="20" height="21" viewBox="0 0 20 21" fill="none" xmlns="http://www.w3.org/2000/svg">
<path d="M20 5.44844C19.9888 5.01701 19.9554 4.58644 19.9 4.15844C19.8253 3.78356 19.7009 3.42035 19.53 3.07844C19.3513 2.70754 19.1112 2.36946 18.82 2.07844C18.5261 1.79064 18.1886 1.55103 17.82 1.36844C17.4776 1.20088 17.1144 1.07981 16.74 1.00844C16.3161 0.944937 15.8886 0.908198 15.46 0.898438H4.55C4.11857 0.909674 3.68801 0.943051 3.26 0.998437C2.88512 1.07311 2.52191 1.19754 2.18 1.36844C1.8091 1.54717 1.47103 1.78721 1.18 2.07844C0.892204 2.37235 0.652591 2.70983 0.47 3.07844C0.302444 3.4208 0.181373 3.78401 0.11 4.15844C0.0464994 4.58237 0.0097601 5.00988 0 5.43844C0 5.62844 0 5.89844 0 5.97844V15.8184C0 15.9284 0 16.1684 0 16.3484C0.0112364 16.7799 0.0446136 17.2104 0.0999999 17.6384C0.174668 18.0133 0.299103 18.3765 0.47 18.7184C0.648737 19.0893 0.888773 19.4274 1.18 19.7184C1.47391 20.0062 1.81139 20.2458 2.18 20.4284C2.52236 20.596 2.88558 20.7171 3.26 20.7884C3.68393 20.8519 4.11145 20.8887 4.54 20.8984H15.45C15.8814 20.8872 16.312 20.8538 16.74 20.7984C17.1149 20.7238 17.4781 20.5993 17.82 20.4284C18.1909 20.2497 18.529 20.0097 18.82 19.7184C19.1078 19.4245 19.3474 19.087 19.53 18.7184C19.6976 18.3761 19.8186 18.0129 19.89 17.6384C19.9535 17.2145 19.9902 16.787 20 16.3584C20 16.1684 20 15.9284 20 15.8184V5.97844C20 5.89844 20 5.62844 20 5.44844ZM10.23 17.8984C9.02906 17.8925 7.84913 17.5829 6.8 16.9984L3 17.9984L4 14.2784C3.35511 13.1949 3.00999 11.9593 3 10.6984C3.00398 9.28136 3.4272 7.89715 4.21636 6.72014C5.00552 5.54314 6.12532 4.62597 7.43473 4.08415C8.74414 3.54234 10.1846 3.40011 11.5747 3.67538C12.9648 3.95064 14.2423 4.6311 15.2464 5.63104C16.2505 6.63098 16.9363 7.90569 17.2173 9.29462C17.4984 10.6836 17.3622 12.1246 16.8258 13.4362C16.2894 14.7479 15.3769 15.8715 14.2032 16.6655C13.0295 17.4596 11.647 17.8886 10.23 17.8984Z" fill="white"/>
<path d="M10.23 17.8984C9.02906 17.8925 7.84913 17.5829 6.8 16.9984L3 17.9984L4 14.2784C3.35511 13.1949 3.00999 11.9593 3 10.6984C3.00398 9.28136 3.4272 7.89715 4.21636 6.72014C5.00552 5.54314 6.12532 4.62597 7.43473 4.08415C8.74414 3.54234 10.1846 3.40011 11.5747 3.67538C12.9648 3.95064 14.2423 4.6311 15.2464 5.63104C16.2505 6.63098 16.9363 7.90569 17.2173 9.29462C17.4984 10.6836 17.3622 12.1246 16.8258 13.4362C16.2894 14.7479 15.3769 15.8715 14.2032 16.6655C13.0295 17.4596 11.647 17.8886 10.23 17.8984Z" fill="white"/>
<rect x="4.16675" y="5.16675" width="11.6667" height="11.6667" fill="#27577C"/>
<path d="M9.99532 2.66675C8.34715 2.66675 6.73598 3.15549 5.36557 4.07117C3.99516 4.98685 2.92706 6.28834 2.29633 7.81105C1.6656 9.33377 1.50057 11.0093 1.82211 12.6258C2.14366 14.2423 2.93733 15.7272 4.10277 16.8926C5.26821 18.0581 6.75306 18.8518 8.36957 19.1733C9.98608 19.4948 11.6616 19.3298 13.1844 18.6991C14.7071 18.0683 16.0086 17.0002 16.9242 15.6298C17.8399 14.2594 18.3287 12.6483 18.3287 11.0001C18.3287 9.90571 18.1133 8.82203 17.6945 7.81095C17.2757 6.79986 16.6619 5.88116 15.8881 5.10732C15.1142 4.33348 14.1955 3.71966 13.1845 3.3009C12.1734 2.88214 11.0897 2.66666 9.99532 2.66675V2.66675ZM12.6449 15.2938C12.6137 15.3716 12.5663 15.4418 12.5057 15.4997C12.4452 15.5577 12.3729 15.602 12.2939 15.6297C12.2148 15.6575 12.1307 15.668 12.0472 15.6606C11.9638 15.6531 11.8829 15.628 11.8099 15.5867L9.54769 13.8289L8.09576 15.1684C8.06207 15.1933 8.02266 15.2093 7.98116 15.215C7.93965 15.2207 7.89739 15.2158 7.85826 15.2009L8.13659 12.7105L8.1455 12.7175L8.15119 12.6684C8.15119 12.6684 12.222 8.96212 12.3879 8.80421C12.5557 8.64671 12.5004 8.61255 12.5004 8.61255C12.5099 8.42044 12.1991 8.61255 12.1991 8.61255L6.80532 12.0826L4.55908 11.3176C4.55908 11.3176 4.21408 11.1938 4.18158 10.9217C4.14742 10.6517 4.57032 10.5051 4.57032 10.5051L13.5012 6.95716C13.5012 6.95716 14.2353 6.63006 14.2353 7.17175L12.6449 15.2938Z" fill="white"/>
</svg>
