<svg width="20" height="21" viewBox="0 0 20 21" fill="none" xmlns="http://www.w3.org/2000/svg">
<path d="M20 5.44844C19.9888 5.01701 19.9554 4.58644 19.9 4.15844C19.8253 3.78356 19.7009 3.42035 19.53 3.07844C19.3513 2.70754 19.1112 2.36946 18.82 2.07844C18.5261 1.79064 18.1886 1.55103 17.82 1.36844C17.4776 1.20088 17.1144 1.07981 16.74 1.00844C16.3161 0.944937 15.8886 0.908198 15.46 0.898438H4.55C4.11857 0.909674 3.68801 0.943051 3.26 0.998437C2.88512 1.07311 2.52191 1.19754 2.18 1.36844C1.8091 1.54717 1.47103 1.78721 1.18 2.07844C0.892204 2.37235 0.652591 2.70983 0.47 3.07844C0.302444 3.4208 0.181373 3.78401 0.11 4.15844C0.0464994 4.58237 0.0097601 5.00988 0 5.43844C0 5.62844 0 5.89844 0 5.97844V15.8184C0 15.9284 0 16.1684 0 16.3484C0.0112364 16.7799 0.0446136 17.2104 0.0999999 17.6384C0.174668 18.0133 0.299103 18.3765 0.47 18.7184C0.648737 19.0893 0.888773 19.4274 1.18 19.7184C1.47391 20.0062 1.81139 20.2458 2.18 20.4284C2.52236 20.596 2.88558 20.7171 3.26 20.7884C3.68393 20.8519 4.11145 20.8887 4.54 20.8984H15.45C15.8814 20.8872 16.312 20.8538 16.74 20.7984C17.1149 20.7238 17.4781 20.5993 17.82 20.4284C18.1909 20.2497 18.529 20.0097 18.82 19.7184C19.1078 19.4245 19.3474 19.087 19.53 18.7184C19.6976 18.3761 19.8186 18.0129 19.89 17.6384C19.9535 17.2145 19.9902 16.787 20 16.3584C20 16.1684 20 15.9284 20 15.8184V5.97844C20 5.89844 20 5.62844 20 5.44844ZM10.23 17.8984C9.02906 17.8925 7.84913 17.5829 6.8 16.9984L3 17.9984L4 14.2784C3.35511 13.1949 3.00999 11.9593 3 10.6984C3.00398 9.28136 3.4272 7.89715 4.21636 6.72014C5.00552 5.54314 6.12532 4.62597 7.43473 4.08415C8.74414 3.54234 10.1846 3.40011 11.5747 3.67538C12.9648 3.95064 14.2423 4.6311 15.2464 5.63104C16.2505 6.63098 16.9363 7.90569 17.2173 9.29462C17.4984 10.6836 17.3622 12.1246 16.8258 13.4362C16.2894 14.7479 15.3769 15.8715 14.2032 16.6655C13.0295 17.4596 11.647 17.8886 10.23 17.8984ZM10.23 4.76844C9.16981 4.78057 8.13177 5.07342 7.22156 5.61718C6.31135 6.16093 5.56148 6.93617 5.0483 7.86396C4.53512 8.79175 4.27695 9.83896 4.30008 10.899C4.32322 11.959 4.62683 12.9939 5.18 13.8984L5.32 14.1284L4.72 16.3184L7 15.6984L7.22 15.8284C8.12957 16.3642 9.1644 16.6505 10.22 16.6584C11.8113 16.6584 13.3374 16.0263 14.4626 14.9011C15.5879 13.7759 16.22 12.2497 16.22 10.6584C16.22 9.06714 15.5879 7.54102 14.4626 6.4158C13.3374 5.29058 11.8113 4.65844 10.22 4.65844L10.23 4.76844ZM13.73 13.2884C13.599 13.5069 13.4236 13.6954 13.2152 13.8419C13.0068 13.9883 12.7699 14.0893 12.52 14.1384C12.1465 14.2067 11.7621 14.1827 11.4 14.0684C11.0593 13.9619 10.7254 13.835 10.4 13.6884C9.16374 13.0681 8.10944 12.1378 7.34 10.9884C6.92188 10.4559 6.66819 9.81299 6.61 9.13844C6.60405 8.85823 6.65705 8.57989 6.76558 8.32148C6.87412 8.06307 7.03575 7.83036 7.24 7.63844C7.30016 7.57022 7.37397 7.5154 7.45665 7.4775C7.53934 7.43961 7.62905 7.41948 7.72 7.41844H8C8.11 7.41844 8.26 7.41844 8.4 7.72844C8.54 8.03844 8.91 8.96844 8.96 9.05844C8.98457 9.10641 8.99739 9.15954 8.99739 9.21344C8.99739 9.26734 8.98457 9.32047 8.96 9.36844C8.91579 9.4771 8.85508 9.5783 8.78 9.66844C8.69 9.77844 8.59 9.90844 8.51 9.98844C8.43 10.0684 8.33 10.1684 8.43 10.3484C8.70209 10.8076 9.03888 11.2252 9.43 11.5884C9.85593 11.9648 10.3429 12.2658 10.87 12.4784C11.05 12.5684 11.16 12.5584 11.26 12.4784C11.36 12.3984 11.71 11.9584 11.83 11.7784C11.95 11.5984 12.07 11.6284 12.23 11.6884C12.39 11.7484 13.28 12.1784 13.46 12.2684C13.64 12.3584 13.75 12.3984 13.8 12.4784C13.8434 12.7402 13.8193 13.0086 13.73 13.2584V13.2884Z" fill="white"/>
</svg>
