<svg width="25" height="23" viewBox="0 0 25 23" fill="none" xmlns="http://www.w3.org/2000/svg">
<path d="M7.84252 5.92105C7.2321 5.92105 6.73725 6.4159 6.73725 7.02632C6.73725 7.63674 7.2321 8.13158 7.84252 8.13158V5.92105ZM16.6846 8.13158C17.295 8.13158 17.7899 7.63674 17.7899 7.02632C17.7899 6.4159 17.295 5.92105 16.6846 5.92105V8.13158ZM7.84252 10.3421C7.2321 10.3421 6.73725 10.8369 6.73725 11.4474C6.73725 12.0578 7.2321 12.5526 7.84252 12.5526V10.3421ZM12.2636 12.5526C12.874 12.5526 13.3688 12.0578 13.3688 11.4474C13.3688 10.8369 12.874 10.3421 12.2636 10.3421V12.5526ZM23.0753 15.7667L24.0601 16.2685V16.2685L23.0753 15.7667ZM22.1092 16.7328L22.611 17.7175L22.1092 16.7328ZM22.1092 1.74093L22.611 0.756137V0.756136L22.1092 1.74093ZM23.0753 2.70697L24.0601 2.20519V2.20519L23.0753 2.70697ZM2.41791 1.74093L2.91968 2.72573H2.91969L2.41791 1.74093ZM1.45187 2.70697L2.43667 3.20875V3.20875L1.45187 2.70697ZM2.54537 20.7162L3.18301 21.619L3.18313 21.6189L2.54537 20.7162ZM6.92503 17.6219L6.28726 16.7192L6.28726 16.7192L6.92503 17.6219ZM1.31071 20.8173L2.21643 20.1838H2.21643L1.31071 20.8173ZM2.43043 20.785L1.93667 19.7961L1.93665 19.7961L2.43043 20.785ZM1.6828 21.0473L1.52125 22.1406H1.52125L1.6828 21.0473ZM2.50391 20.7448L1.908 19.8139L1.90785 19.814L2.50391 20.7448ZM2.47509 20.762L1.93681 19.7967L1.93674 19.7967L2.47509 20.762ZM8.13904 17.0112L8.34183 18.0977L8.34183 18.0977L8.13904 17.0112ZM7.622 17.1754L8.08331 18.1798L8.08331 18.1798L7.622 17.1754ZM7.84252 8.13158H16.6846V5.92105H7.84252V8.13158ZM7.84252 12.5526H12.2636V10.3421H7.84252V12.5526ZM4.74778 2.60526H19.7794V0.394737H4.74778V2.60526ZM22.2109 5.03684V13.4368H24.4215V5.03684H22.2109ZM22.2109 13.4368C22.2109 14.0741 22.2101 14.4855 22.1845 14.7987C22.16 15.099 22.1183 15.2103 22.0905 15.2649L24.0601 16.2685C24.2732 15.8503 24.352 15.4157 24.3877 14.9787C24.4223 14.5547 24.4215 14.0376 24.4215 13.4368H22.2109ZM19.7794 18.0789C20.3801 18.0789 20.8972 18.0798 21.3212 18.0452C21.7582 18.0095 22.1928 17.9306 22.611 17.7175L21.6075 15.748C21.5528 15.7758 21.4415 15.8174 21.1412 15.842C20.8281 15.8676 20.4166 15.8684 19.7794 15.8684V18.0789ZM22.0905 15.2649C21.9845 15.4729 21.8154 15.642 21.6075 15.748L22.611 17.7175C23.2349 17.3996 23.7422 16.8924 24.0601 16.2685L22.0905 15.2649ZM19.7794 2.60526C20.4166 2.60526 20.8281 2.60612 21.1412 2.63171C21.4415 2.65624 21.5528 2.69788 21.6075 2.72573L22.611 0.756136C22.1928 0.543048 21.7582 0.464225 21.3212 0.428524C20.8972 0.393877 20.3801 0.394737 19.7794 0.394737V2.60526ZM24.4215 5.03684C24.4215 4.43607 24.4223 3.91903 24.3877 3.49497C24.352 3.05801 24.2732 2.6234 24.0601 2.20519L22.0905 3.20875C22.1183 3.2634 22.16 3.37472 22.1845 3.67498C22.2101 3.98814 22.2109 4.3996 22.2109 5.03684H24.4215ZM21.6075 2.72573C21.8154 2.83169 21.9845 3.00078 22.0905 3.20875L24.0601 2.20519C23.7422 1.58129 23.2349 1.07403 22.611 0.756137L21.6075 2.72573ZM4.74778 0.394737C4.14701 0.394737 3.62996 0.393877 3.20591 0.428524C2.76895 0.464225 2.33434 0.543048 1.91613 0.756136L2.91969 2.72573C2.97433 2.69788 3.08565 2.65624 3.38591 2.63171C3.69908 2.60612 4.11054 2.60526 4.74778 2.60526V0.394737ZM2.3162 5.03684C2.3162 4.3996 2.31706 3.98814 2.34265 3.67498C2.36718 3.37472 2.40882 3.2634 2.43667 3.20875L0.467074 2.20519C0.253986 2.6234 0.175163 3.05801 0.139462 3.49497C0.104815 3.91903 0.105674 4.43607 0.105674 5.03684H2.3162ZM1.91613 0.756136C1.29222 1.07403 0.78497 1.58128 0.467074 2.20519L2.43667 3.20875C2.54263 3.00078 2.71172 2.83169 2.91968 2.72573L1.91613 0.756136ZM19.7794 15.8684H8.96589V18.0789H19.7794V15.8684ZM3.18313 21.6189L7.5628 18.5246L6.28726 16.7192L1.9076 19.8135L3.18313 21.6189ZM0.105674 19.9641C0.105674 20.1794 0.104573 20.417 0.122747 20.6156C0.140775 20.8125 0.188352 21.141 0.404997 21.4508L2.21643 20.1838C2.27625 20.2694 2.30434 20.3463 2.31667 20.3899C2.32756 20.4285 2.32676 20.4434 2.32407 20.4141C2.32147 20.3857 2.31897 20.3384 2.3176 20.2582C2.31623 20.1786 2.3162 20.0853 2.3162 19.9641H0.105674ZM1.93665 19.7961C1.84028 19.8443 1.76613 19.8809 1.70362 19.9104C1.64049 19.9401 1.60425 19.9553 1.58431 19.9628C1.56376 19.9706 1.58032 19.9625 1.62172 19.9552C1.66777 19.947 1.74627 19.9394 1.84434 19.9539L1.52125 22.1406C1.87865 22.1935 2.18037 22.1005 2.3638 22.0314C2.54611 21.9627 2.74638 21.8626 2.9242 21.7738L1.93665 19.7961ZM0.404997 21.4508C0.666365 21.8245 1.07012 22.074 1.52125 22.1406L1.84434 19.9539C1.99472 19.9761 2.1293 20.0593 2.21643 20.1838L0.404997 21.4508ZM2.3162 19.9641V5.03684H0.105674V19.9641H2.3162ZM1.90772 19.8134C1.90233 19.8172 1.89872 19.8198 1.89566 19.8219C1.89423 19.8229 1.8932 19.8237 1.89245 19.8242C1.8917 19.8247 1.89138 19.8249 1.89139 19.8249C1.8916 19.8248 1.89821 19.8202 1.908 19.8139L3.09982 21.6757C3.13648 21.6522 3.17047 21.6278 3.18301 21.619L1.90772 19.8134ZM2.92419 21.7738C2.93833 21.7668 2.97545 21.7485 3.01344 21.7273L1.93674 19.7967C1.94669 19.7912 1.95378 19.7876 1.95422 19.7873C1.95426 19.7873 1.95394 19.7875 1.95316 19.7879C1.95237 19.7883 1.95128 19.7888 1.94974 19.7896C1.94645 19.7913 1.94253 19.7932 1.93667 19.7961L2.92419 21.7738ZM1.90785 19.814C1.91739 19.8079 1.92698 19.8022 1.93681 19.7967L3.01337 21.7274C3.04269 21.711 3.07164 21.6937 3.09997 21.6756L1.90785 19.814ZM8.96589 15.8684C8.58866 15.8684 8.26098 15.8641 7.93624 15.9247L8.34183 18.0977C8.41921 18.0833 8.50873 18.0789 8.96589 18.0789V15.8684ZM7.5628 18.5246C7.93617 18.2608 8.01178 18.2127 8.08331 18.1798L7.16069 16.171C6.86049 16.3089 6.59535 16.5015 6.28726 16.7192L7.5628 18.5246ZM7.93625 15.9247C7.66859 15.9747 7.4081 16.0574 7.16068 16.171L8.08331 18.1798C8.16579 18.1419 8.25261 18.1144 8.34183 18.0977L7.93625 15.9247Z" fill="#27577C"/>
</svg>
