<svg width="22" height="22" viewBox="0 0 22 22" fill="none" xmlns="http://www.w3.org/2000/svg">
<path d="M6.92637 8.2301C7.62926 9.69406 8.58743 11.0661 9.80089 12.2796C11.0144 13.4931 12.3864 14.4512 13.8504 15.1541C13.9763 15.2146 14.0393 15.2448 14.1189 15.268C14.4021 15.3506 14.7497 15.2913 14.9895 15.1196C15.057 15.0713 15.1147 15.0136 15.2301 14.8981C15.5832 14.545 15.7597 14.3685 15.9373 14.2531C16.6067 13.8178 17.4697 13.8178 18.1392 14.2531C18.3167 14.3685 18.4932 14.545 18.8463 14.8981L19.0431 15.0949C19.5798 15.6316 19.8481 15.9 19.9939 16.1882C20.2838 16.7613 20.2838 17.4382 19.9939 18.0114C19.8481 18.2996 19.5798 18.568 19.0431 19.1047L18.8839 19.2638C18.349 19.7987 18.0816 20.0661 17.718 20.2704C17.3146 20.497 16.6879 20.66 16.2252 20.6586C15.8081 20.6574 15.5231 20.5765 14.9531 20.4147C11.8897 19.5452 8.99904 17.9047 6.58744 15.4931C4.17584 13.0815 2.5353 10.1908 1.66581 7.12739C1.50402 6.55736 1.42312 6.27234 1.42188 5.85531C1.42051 5.39256 1.58346 4.76593 1.8101 4.36247C2.01435 3.99888 2.28178 3.73145 2.81664 3.19659L2.97584 3.03739C3.51254 2.50069 3.78089 2.23235 4.06909 2.08657C4.64226 1.79666 5.31916 1.79666 5.89233 2.08657C6.18054 2.23234 6.44889 2.50069 6.98558 3.03739L7.18238 3.23419C7.53545 3.58725 7.71198 3.76379 7.82739 3.9413C8.26265 4.61075 8.26265 5.47378 7.82739 6.14323C7.71198 6.32075 7.53545 6.49728 7.18238 6.85034C7.06694 6.96578 7.00922 7.02351 6.9609 7.09098C6.78921 7.33076 6.72993 7.67842 6.81246 7.96155C6.83569 8.04122 6.86591 8.10418 6.92637 8.2301Z" stroke="#27577C" stroke-width="2.21053" stroke-linecap="round" stroke-linejoin="round"/>
</svg>
