<svg width="20" height="20" viewBox="0 0 20 20" fill="none" xmlns="http://www.w3.org/2000/svg">
<path d="M20 4.55C19.9888 4.11857 19.9554 3.68801 19.9 3.26C19.8253 2.88512 19.7009 2.52191 19.53 2.18C19.3513 1.8091 19.1112 1.47103 18.82 1.18C18.5261 0.892204 18.1886 0.652591 17.82 0.47C17.4776 0.302444 17.1144 0.181373 16.74 0.11C16.3161 0.0464994 15.8886 0.0097601 15.46 0H4.55C4.11857 0.0112364 3.68801 0.0446136 3.26 0.0999999C2.88512 0.174668 2.52191 0.299103 2.18 0.47C1.8091 0.648737 1.47103 0.888773 1.18 1.18C0.892204 1.47391 0.652591 1.81139 0.47 2.18C0.302444 2.52236 0.181373 2.88558 0.11 3.26C0.0464994 3.68393 0.0097601 4.11145 0 4.54C0 4.73 0 5 0 5.08V14.92C0 15.03 0 15.27 0 15.45C0.0112364 15.8814 0.0446136 16.312 0.0999999 16.74C0.174668 17.1149 0.299103 17.4781 0.47 17.82C0.648737 18.1909 0.888773 18.529 1.18 18.82C1.47391 19.1078 1.81139 19.3474 2.18 19.53C2.52236 19.6976 2.88558 19.8186 3.26 19.89C3.68393 19.9535 4.11145 19.9902 4.54 20H15.45C15.8814 19.9888 16.312 19.9554 16.74 19.9C17.1149 19.8253 17.4781 19.7009 17.82 19.53C18.1909 19.3513 18.529 19.1112 18.82 18.82C19.1078 18.5261 19.3474 18.1886 19.53 17.82C19.6976 17.4776 19.8186 17.1144 19.89 16.74C19.9535 16.3161 19.9902 15.8886 20 15.46C20 15.27 20 15.03 20 14.92V5.08C20 5 20 4.73 20 4.55ZM10.23 17C9.02906 16.9941 7.84913 16.6845 6.8 16.1L3 17.1L4 13.38C3.35511 12.2965 3.00999 11.0609 3 9.8C3.00398 8.38293 3.4272 6.99872 4.21636 5.82171C5.00552 4.6447 6.12532 3.72753 7.43473 3.18572C8.74414 2.6439 10.1846 2.50167 11.5747 2.77694C12.9648 3.05221 14.2423 3.73266 15.2464 4.7326C16.2505 5.73255 16.9363 7.00725 17.2173 8.39619C17.4984 9.78512 17.3622 11.2262 16.8258 12.5378C16.2894 13.8495 15.3769 14.9731 14.2032 15.7671C13.0295 16.5612 11.647 16.9901 10.23 17Z" fill="#27577C"/>
<path d="M10.23 17C9.02906 16.9941 7.84913 16.6845 6.8 16.1L3 17.1L4 13.38C3.35511 12.2965 3.00999 11.0609 3 9.8C3.00398 8.38293 3.4272 6.99872 4.21636 5.82171C5.00552 4.6447 6.12532 3.72753 7.43473 3.18572C8.74414 2.6439 10.1846 2.50167 11.5747 2.77694C12.9648 3.05221 14.2423 3.73266 15.2464 4.7326C16.2505 5.73255 16.9363 7.00725 17.2173 8.39619C17.4984 9.78512 17.3622 11.2262 16.8258 12.5378C16.2894 13.8495 15.3769 14.9731 14.2032 15.7671C13.0295 16.5612 11.647 16.9901 10.23 17Z" fill="#27577C"/>
<rect x="4.16797" y="4.16797" width="11.6667" height="11.6667" fill="white"/>
<path d="M9.99545 1.66602C8.34727 1.66602 6.7361 2.15476 5.36569 3.07044C3.99528 3.98611 2.92718 5.2876 2.29645 6.81032C1.66572 8.33304 1.50069 10.0086 1.82224 11.6251C2.14378 13.2416 2.93745 14.7265 4.10289 15.8919C5.26833 17.0573 6.75319 17.851 8.36969 18.1726C9.9862 18.4941 11.6618 18.3291 13.1845 17.6983C14.7072 17.0676 16.0087 15.9995 16.9244 14.6291C17.84 13.2587 18.3288 11.6475 18.3288 9.99935C18.3289 8.90497 18.1134 7.8213 17.6946 6.81021C17.2759 5.79913 16.662 4.88043 15.8882 4.10659C15.1144 3.33275 14.1957 2.71893 13.1846 2.30017C12.1735 1.88141 11.0898 1.66592 9.99545 1.66602V1.66602ZM12.645 14.2931C12.6138 14.3708 12.5664 14.4411 12.5058 14.499C12.4453 14.5569 12.3731 14.6012 12.294 14.629C12.2149 14.6567 12.1308 14.6672 12.0474 14.6598C11.9639 14.6524 11.883 14.6272 11.81 14.586L9.54781 12.8282L8.09588 14.1677C8.06219 14.1926 8.02278 14.2086 7.98128 14.2143C7.93977 14.2199 7.89751 14.2151 7.85838 14.2001L8.13671 11.7097L8.14562 11.7168L8.15131 11.6676C8.15131 11.6676 12.2221 7.96139 12.388 7.80348C12.5559 7.64598 12.5005 7.61182 12.5005 7.61182C12.51 7.41971 12.1992 7.61182 12.1992 7.61182L6.80545 11.0818L4.5592 10.3168C4.5592 10.3168 4.2142 10.1931 4.1817 9.92102C4.14754 9.65102 4.57045 9.50435 4.57045 9.50435L13.5013 5.95642C13.5013 5.95642 14.2354 5.62932 14.2354 6.17102L12.645 14.2931Z" fill="#27577C"/>
</svg>
