<svg width="20" height="21" viewBox="0 0 20 21" fill="none" xmlns="http://www.w3.org/2000/svg">
<path d="M13.0729 0.5H6.9375C1.33331 0.5 0 1.83331 0 7.42706V13.5625C0 19.1666 1.32294 20.5 6.92706 20.5H13.0625C18.6667 20.5 20 19.1771 20 13.5729V7.4375C20 1.83331 18.6771 0.5 13.0729 0.5ZM16.1458 14.7708H14.6875C14.1354 14.7708 13.9687 14.3229 12.9792 13.3333C12.1146 12.5 11.75 12.3958 11.5312 12.3958C11.2292 12.3958 11.1458 12.4791 11.1458 12.8958V14.2083C11.1458 14.5625 11.0312 14.7708 10.1042 14.7708C9.20458 14.7104 8.33219 14.4371 7.55888 13.9735C6.78557 13.5098 6.13346 12.8691 5.65625 12.1041C4.52336 10.694 3.73511 9.03906 3.35419 7.27081C3.35419 7.05206 3.4375 6.85413 3.85419 6.85413H5.3125C5.6875 6.85413 5.82294 7.02081 5.96875 7.40625C6.67706 9.48956 7.88544 11.3021 8.375 11.3021C8.5625 11.3021 8.64581 11.2188 8.64581 10.75V8.60413C8.58331 7.625 8.0625 7.54163 8.0625 7.1875C8.06936 7.09407 8.11236 7.00699 8.18237 6.94475C8.25239 6.8825 8.34391 6.85 8.4375 6.85413H10.7292C11.0417 6.85413 11.1458 7.01038 11.1458 7.38538V10.2812C11.1458 10.5938 11.2812 10.6979 11.375 10.6979C11.5625 10.6979 11.7083 10.5938 12.0521 10.25C12.7907 9.34918 13.3943 8.34559 13.8438 7.27081C13.8896 7.14149 13.9766 7.03074 14.0913 6.9555C14.2061 6.88025 14.3423 6.84465 14.4792 6.85413H15.9375C16.375 6.85413 16.4688 7.07288 16.375 7.38538C15.8444 8.57369 15.1878 9.70168 14.4167 10.75C14.2604 10.9896 14.1979 11.1146 14.4167 11.3958C14.5625 11.6146 15.0729 12.0416 15.4167 12.4479C15.9167 12.9466 16.3318 13.5237 16.6458 14.1562C16.7708 14.5625 16.5625 14.7708 16.1458 14.7708V14.7708Z" fill="white"/>
</svg>
