<svg width="20" height="21" viewBox="0 0 20 21" fill="none" xmlns="http://www.w3.org/2000/svg">
<path d="M20 5.05C19.9888 4.61857 19.9554 4.18801 19.9 3.76C19.8253 3.38512 19.7009 3.02191 19.53 2.68C19.3513 2.3091 19.1112 1.97103 18.82 1.68C18.5261 1.3922 18.1886 1.15259 17.82 0.97C17.4776 0.802444 17.1144 0.681373 16.74 0.61C16.3161 0.546499 15.8886 0.50976 15.46 0.5H4.55C4.11857 0.511236 3.68801 0.544614 3.26 0.6C2.88512 0.674668 2.52191 0.799103 2.18 0.97C1.8091 1.14874 1.47103 1.38877 1.18 1.68C0.892204 1.97391 0.652591 2.31139 0.47 2.68C0.302444 3.02236 0.181373 3.38558 0.11 3.76C0.0464994 4.18393 0.0097601 4.61145 0 5.04C0 5.23 0 5.5 0 5.58V15.42C0 15.53 0 15.77 0 15.95C0.0112364 16.3814 0.0446136 16.812 0.0999999 17.24C0.174668 17.6149 0.299103 17.9781 0.47 18.32C0.648737 18.6909 0.888773 19.029 1.18 19.32C1.47391 19.6078 1.81139 19.8474 2.18 20.03C2.52236 20.1976 2.88558 20.3186 3.26 20.39C3.68393 20.4535 4.11145 20.4902 4.54 20.5H15.45C15.8814 20.4888 16.312 20.4554 16.74 20.4C17.1149 20.3253 17.4781 20.2009 17.82 20.03C18.1909 19.8513 18.529 19.6112 18.82 19.32C19.1078 19.0261 19.3474 18.6886 19.53 18.32C19.6976 17.9776 19.8186 17.6144 19.89 17.24C19.9535 16.8161 19.9902 16.3886 20 15.96C20 15.77 20 15.53 20 15.42V5.58C20 5.5 20 5.23 20 5.05ZM10.23 17.5C9.02906 17.4941 7.84913 17.1845 6.8 16.6L3 17.6L4 13.88C3.35511 12.7965 3.00999 11.5609 3 10.3C3.00398 8.88293 3.4272 7.49872 4.21636 6.32171C5.00552 5.1447 6.12532 4.22753 7.43473 3.68572C8.74414 3.1439 10.1846 3.00167 11.5747 3.27694C12.9648 3.55221 14.2423 4.23266 15.2464 5.2326C16.2505 6.23255 16.9363 7.50725 17.2173 8.89619C17.4984 10.2851 17.3622 11.7262 16.8258 13.0378C16.2894 14.3495 15.3769 15.4731 14.2032 16.2671C13.0295 17.0612 11.647 17.4901 10.23 17.5Z" fill="white"/>
<path d="M10.23 17.5C9.02906 17.4941 7.84913 17.1845 6.8 16.6L3 17.6L4 13.88C3.35511 12.7965 3.00999 11.5609 3 10.3C3.00398 8.88293 3.4272 7.49872 4.21636 6.32171C5.00552 5.1447 6.12532 4.22753 7.43473 3.68572C8.74414 3.1439 10.1846 3.00167 11.5747 3.27694C12.9648 3.55221 14.2423 4.23266 15.2464 5.2326C16.2505 6.23255 16.9363 7.50725 17.2173 8.89619C17.4984 10.2851 17.3622 11.7262 16.8258 13.0378C16.2894 14.3495 15.3769 15.4731 14.2032 16.2671C13.0295 17.0612 11.647 17.4901 10.23 17.5Z" fill="white"/>
<rect x="4.16675" y="4.375" width="11.6667" height="12.25" fill="#27577C"/>
<path d="M9.99532 1.75C8.34715 1.75 6.73598 2.26318 5.36557 3.22464C3.99516 4.1861 2.92706 5.55267 2.29633 7.15152C1.6656 8.75037 1.50057 10.5097 1.82211 12.207C2.14366 13.9044 2.93733 15.4635 4.10277 16.6872C5.26821 17.9109 6.75306 18.7443 8.36957 19.0819C9.98608 19.4195 11.6616 19.2462 13.1844 18.5839C14.7071 17.9217 16.0086 16.8002 16.9242 15.3612C17.8399 13.9223 18.3287 12.2306 18.3287 10.5C18.3287 9.35091 18.1133 8.21305 17.6945 7.15141C17.2757 6.08977 16.6619 5.12513 15.8881 4.3126C15.1142 3.50007 14.1955 2.85555 13.1845 2.41586C12.1734 1.97617 11.0897 1.7499 9.99532 1.75V1.75ZM12.6449 15.0084C12.6137 15.0901 12.5663 15.1638 12.5057 15.2246C12.4452 15.2855 12.3729 15.332 12.2939 15.3611C12.2148 15.3902 12.1307 15.4013 12.0472 15.3935C11.9638 15.3857 11.8829 15.3593 11.8099 15.316L9.54769 13.4703L8.09576 14.8768C8.06207 14.9029 8.02266 14.9197 7.98116 14.9257C7.93965 14.9316 7.89739 14.9265 7.85826 14.9108L8.13659 12.2959L8.1455 12.3033L8.15119 12.2517C8.15119 12.2517 12.222 8.36014 12.3879 8.19434C12.5557 8.02897 12.5004 7.99309 12.5004 7.99309C12.5099 7.79138 12.1991 7.99309 12.1991 7.99309L6.80532 11.6366L4.55908 10.8334C4.55908 10.8334 4.21408 10.7034 4.18158 10.4178C4.14742 10.1343 4.57032 9.98025 4.57032 9.98025L13.5012 6.25493C13.5012 6.25493 14.2353 5.91147 14.2353 6.48025L12.6449 15.0084Z" fill="white"/>
</svg>
